<?xml version="1.0" encoding="utf-8"?>
<!-- Generator: Adobe Illustrator 19.0.0, SVG Export Plug-In . SVG Version: 6.00 Build 0)  -->
<svg version="1.1" id="Layer_1" xmlns="http://www.w3.org/2000/svg" xmlns:xlink="http://www.w3.org/1999/xlink" x="0px" y="0px"
	 viewBox="0 0 100 100" style="enable-background:new 0 0 100 100;" xml:space="preserve">
<style type="text/css">
	.st0{fill:#FFFFFF;}
</style>
<g>
	<path id="Behance" class="st0" d="M74.1,36.1H58.5v-3.9h15.6V36.1L74.1,36.1z M50.2,52c1,1.6,1.5,3.5,1.5,5.7
		c0,2.3-0.5,4.4-1.7,6.2c-0.7,1.2-1.6,2.2-2.8,3.1c-1.3,1-2.7,1.6-4.4,2c-1.7,0.4-3.5,0.5-5.5,0.5H19.9V30.6h18.7
		c4.7,0.1,8,1.4,10,4.1c1.2,1.6,1.8,3.6,1.8,5.9c0,2.4-0.6,4.3-1.8,5.7c-0.7,0.8-1.6,1.6-2.9,2.2C47.7,49.3,49.2,50.4,50.2,52z
		 M28.9,45.9h8.2c1.7,0,3.1-0.3,4.1-1s1.6-1.8,1.6-3.4c0-1.8-0.7-3-2.1-3.6c-1.2-0.4-2.7-0.6-4.6-0.6h-7.2
		C28.9,37.3,28.9,45.9,28.9,45.9z M43.5,57.1c0-2-0.8-3.4-2.5-4.1c-0.9-0.4-2.2-0.7-3.9-0.7h-8.3v10.3H37c1.7,0,3-0.2,3.9-0.7
		C42.7,61.1,43.5,59.5,43.5,57.1z M79.8,50.8c0.2,1.3,0.3,3.1,0.2,5.5H59.8c0.1,2.8,1.1,4.7,2.9,5.9c1.1,0.7,2.5,1,4,1
		c1.6,0,3-0.4,4-1.3c0.5-0.5,1.1-1.1,1.5-1.9h7.4c-0.2,1.6-1.1,3.3-2.7,5c-2.5,2.7-5.9,4.1-10.4,4.1c-3.7,0-7-1.1-9.8-3.4
		c-2.8-2.3-4.3-6-4.3-11.1c0-4.8,1.3-8.5,3.8-11c2.6-2.6,5.9-3.8,10-3.8c2.4,0,4.6,0.4,6.5,1.3c1.9,0.8,3.5,2.2,4.8,4.1
		C78.7,46.8,79.5,48.6,79.8,50.8z M72.6,51.6c-0.1-1.9-0.8-3.4-1.9-4.4s-2.6-1.5-4.3-1.5c-1.9,0-3.3,0.5-4.3,1.6
		c-1,1.1-1.7,2.5-1.9,4.3L72.6,51.6L72.6,51.6z"/>
</g>
</svg>
