<?xml version="1.0" encoding="utf-8"?>
<!-- Generator: Adobe Illustrator 19.0.0, SVG Export Plug-In . SVG Version: 6.00 Build 0)  -->
<svg version="1.1" id="Layer_1" xmlns="http://www.w3.org/2000/svg" xmlns:xlink="http://www.w3.org/1999/xlink" x="0px" y="0px"
	 viewBox="0 0 100 100" style="enable-background:new 0 0 100 100;" xml:space="preserve">
<style type="text/css">
	.st0{fill:#FFFFFF;}
</style>
<g>
	<path class="st0" d="M60.4,54.3c-2.3,0-4.3,2.6-4.3,5.9c0,3.2,1.9,5.9,4.3,5.9c2.3,0,4.3-2.6,4.3-5.9
		C64.6,56.9,62.7,54.3,60.4,54.3z M75.1,39c0.5-1.2,0.5-8-2-14.5c0,0-5.9,0.7-14.8,6.8c-1.9-0.5-5-0.8-8.2-0.8
		c-3.2,0-6.4,0.2-8.3,0.8C32.8,25.2,27,24.6,27,24.6C24.4,31,24.4,37.8,24.9,39c-3,3.3-4.9,7.3-4.9,12.6c0,23.5,19.4,23.8,24.4,23.8
		c1.1,0,3.3,0,5.6,0s4.6,0,5.6,0c4.9,0,24.4-0.4,24.4-23.8C80,46.2,78.1,42.3,75.1,39z M50.1,72.6h-0.2C37.6,72.6,28,71.1,28,59.1
		c0-2.9,1-5.5,3.4-7.7c4-3.7,10.8-1.7,18.5-1.7c0,0,0.1,0,0.1,0c0.1,0,0.1,0,0.1,0c7.7,0,14.5-1.9,18.5,1.7c2.4,2.2,3.4,4.9,3.4,7.7
		C72,71.1,62.4,72.6,50.1,72.6z M39.6,54.3c-2.3,0-4.3,2.6-4.3,5.9c0,3.2,1.9,5.9,4.3,5.9c2.3,0,4.3-2.6,4.3-5.9
		C43.9,56.9,42,54.3,39.6,54.3z"/>
</g>
</svg>
