<?xml version="1.0" encoding="utf-8"?>
<!-- Generator: Adobe Illustrator 19.0.0, SVG Export Plug-In . SVG Version: 6.00 Build 0)  -->
<svg version="1.1" id="Layer_1" xmlns="http://www.w3.org/2000/svg" xmlns:xlink="http://www.w3.org/1999/xlink" x="0px" y="0px"
	 viewBox="0 0 100 100" style="enable-background:new 0 0 100 100;" xml:space="preserve">
<style type="text/css">
	.st0{fill:#FFFFFF;}
</style>
<g>
	<path id="LinkedIn" class="st0" d="M77.7,53v20H66.2V54.4c0-4.7-1.7-7.9-5.9-7.9c-3.2,0-5,2.2-5.9,4.2C54,51.4,54,52.5,54,53.5V73
		H42.4c0,0,0.2-31.5,0-34.9h11.5v5c0,0.1-0.1,0.1-0.1,0.1h0.1V43c1.5-2.3,4.2-5.8,10.4-5.8C71.9,37.3,77.7,42.3,77.7,53z M30.2,21.3
		c-4,0-6.6,2.6-6.6,6c0,3.3,2.5,6,6.4,6h0.1c4.1,0,6.6-2.7,6.6-6C36.6,23.9,34.2,21.3,30.2,21.3z M24.4,73h11.5V38.1H24.4V73z"/>
</g>
</svg>
