<?xml version="1.0" encoding="utf-8"?>
<!-- Generator: Adobe Illustrator 19.0.0, SVG Export Plug-In . SVG Version: 6.00 Build 0)  -->
<svg version="1.1" id="Layer_1" xmlns="http://www.w3.org/2000/svg" xmlns:xlink="http://www.w3.org/1999/xlink" x="0px" y="0px"
	 viewBox="0 0 73 50" style="enable-background:new 0 0 73 50;" xml:space="preserve">
<g id="XMLID_4_">
	<path id="XMLID_5_" d="M16.2,18.2c8.8,0,15.8,7.1,15.8,15.8s-7.1,15.8-15.8,15.8S0.3,42.8,0.3,34.1l-0.1-2.3
		c0-17.5,14.2-31.7,31.7-31.7v9.1c-6,0-11.7,2.3-16,6.6c-0.8,0.8-1.6,1.7-2.2,2.6C14.5,18.3,15.3,18.2,16.2,18.2z M56.9,18.2
		c8.8,0,15.8,7.1,15.8,15.8s-7.1,15.8-15.8,15.8s-15.8-7.1-15.8-15.8L41,31.8C41,14.3,55.2,0.1,72.7,0.1v9.1c-6,0-11.7,2.3-16,6.6
		c-0.8,0.8-1.6,1.7-2.2,2.6C55.2,18.3,56.1,18.2,56.9,18.2z"/>
</g>
</svg>
