<?xml version="1.0" encoding="utf-8"?>
<!-- Generator: Adobe Illustrator 19.0.0, SVG Export Plug-In . SVG Version: 6.00 Build 0)  -->
<svg version="1.1" id="Layer_1" xmlns="http://www.w3.org/2000/svg" xmlns:xlink="http://www.w3.org/1999/xlink" x="0px" y="0px"
	 viewBox="-672 968.2 73 50" style="enable-background:new -672 968.2 73 50;" xml:space="preserve">
<style type="text/css">
	.st0{fill:#81CA79;}
</style>
<g id="XMLID_4_">
	<path id="XMLID_5_" class="st0" d="M-615.2,1000c-8.8,0-15.8-7.1-15.8-15.8s7.1-15.9,15.8-15.9s15.8,7.1,15.8,15.8l0.1,2.3
		c0,17.5-14.2,31.7-31.7,31.7v-9.1c6,0,11.7-2.3,16-6.6c0.8-0.8,1.6-1.7,2.2-2.6C-613.5,1000-614.3,1000-615.2,1000z M-655.9,1000
		c-8.8,0-15.8-7.1-15.8-15.8s7-15.9,15.8-15.9c8.8,0,15.8,7.1,15.8,15.8l0.1,2.3c0,17.5-14.2,31.7-31.7,31.7v-9.1
		c6,0,11.7-2.3,16-6.6c0.8-0.8,1.6-1.7,2.2-2.6C-654.2,1000-655.1,1000-655.9,1000z"/>
</g>
</svg>
