<?xml version="1.0" encoding="utf-8"?>
<!-- Generator: Adobe Illustrator 19.0.0, SVG Export Plug-In . SVG Version: 6.00 Build 0)  -->
<svg version="1.1" id="Layer_1" xmlns="http://www.w3.org/2000/svg" xmlns:xlink="http://www.w3.org/1999/xlink" x="0px" y="0px"
	 viewBox="0 0 73 50" style="enable-background:new 0 0 73 50;" xml:space="preserve">
<g id="XMLID_4_">
	<path id="XMLID_5_" d="M56.8,31.8c-8.8,0-15.8-7.1-15.8-15.8S48.1,0.1,56.8,0.1s15.8,7.1,15.8,15.8l0.1,2.3
		c0,17.5-14.2,31.7-31.7,31.7v-9.1c6,0,11.7-2.3,16-6.6c0.8-0.8,1.6-1.7,2.2-2.6C58.5,31.7,57.7,31.8,56.8,31.8z M16.1,31.8
		c-8.8,0-15.8-7.1-15.8-15.8S7.3,0.1,16.1,0.1s15.8,7.1,15.8,15.8l0.1,2.3c0,17.5-14.2,31.7-31.7,31.7v-9.1c6,0,11.7-2.3,16-6.6
		c0.8-0.8,1.6-1.7,2.2-2.6C17.8,31.7,16.9,31.8,16.1,31.8z"/>
</g>
</svg>
