<?xml version="1.0" encoding="utf-8"?>
<!-- Generator: Adobe Illustrator 19.0.0, SVG Export Plug-In . SVG Version: 6.00 Build 0)  -->
<svg version="1.1" id="Layer_1" xmlns="http://www.w3.org/2000/svg" xmlns:xlink="http://www.w3.org/1999/xlink" x="0px" y="0px"
	 viewBox="-672 968.2 73 50" style="enable-background:new -672 968.2 73 50;" xml:space="preserve">
<style type="text/css">
	.st0{fill:#81CA79;}
</style>
<g id="XMLID_4_">
	<path id="XMLID_5_" class="st0" d="M-655.8,986.5c8.8,0,15.8,7.1,15.8,15.8s-7.1,15.8-15.8,15.8s-15.9-7-15.9-15.7l-0.1-2.3
		c0-17.5,14.2-31.7,31.7-31.7v9.1c-6,0-11.7,2.3-16,6.6c-0.8,0.8-1.6,1.7-2.2,2.6C-657.5,986.5-656.7,986.5-655.8,986.5z
		 M-615.1,986.5c8.8,0,15.8,7.1,15.8,15.8s-7.1,15.8-15.8,15.8c-8.7,0-15.8-7.1-15.8-15.8l-0.1-2.2c0-17.5,14.2-31.7,31.7-31.7v9.1
		c-6,0-11.7,2.3-16,6.6c-0.8,0.8-1.6,1.7-2.2,2.6C-616.8,986.5-615.9,986.5-615.1,986.5z"/>
</g>
</svg>
