<?xml version="1.0" encoding="utf-8"?>
<!-- Generator: Adobe Illustrator 19.0.0, SVG Export Plug-In . SVG Version: 6.00 Build 0)  -->
<svg version="1.1" id="Layer_1" xmlns="http://www.w3.org/2000/svg" xmlns:xlink="http://www.w3.org/1999/xlink" x="0px" y="0px"
	 viewBox="0 0 100 100" style="enable-background:new 0 0 100 100;" xml:space="preserve">
<style type="text/css">
	.st0{fill:#FFFFFF;}
</style>
<g>
	<path id="XMLID_1_" class="st0" d="M80,31.4c-2.2,1-4.6,1.6-7.1,1.9c2.5-1.5,4.5-4,5.4-6.8c-2.4,1.4-5,2.5-7.8,3
		c-2.2-2.4-5.5-3.9-9-3.9c-6.8,0-12.3,5.5-12.3,12.3c0,1,0.1,1.9,0.3,2.8c-10.3-0.5-19.3-5.4-25.4-12.8c-1.1,1.8-1.7,4-1.7,6.2
		c0,4.3,2.2,8,5.5,10.3c-2-0.1-3.9-0.6-5.6-1.6c0,0.1,0,0.1,0,0.2c0,5.9,4.3,10.9,9.9,12.1c-1,0.3-2.1,0.4-3.2,0.4
		c-0.8,0-1.6-0.1-2.3-0.2c1.6,4.9,6.1,8.5,11.5,8.5c-4.2,3.3-9.5,5.3-15.3,5.3c-1,0-2-0.1-2.9-0.2c5.5,3.5,11.9,5.5,18.8,5.5
		c22.6,0,35-18.8,35-35c0-0.5,0-1.1-0.1-1.6C76.3,36,78.3,33.8,80,31.4z"/>
</g>
</svg>
